<svg width="50" height="50" viewBox="0 0 50 50" fill="none" xmlns="http://www.w3.org/2000/svg">
  <mask id="mask0_1479_21424" style="mask-type:alpha" maskUnits="userSpaceOnUse" x="0" y="0" width="50" height="50">
    <path d="M25 50C38.8071 50 50 38.8071 50 25C50 11.1929 38.8071 0 25 0C11.1929 0 0 11.1929 0 25C0 38.8071 11.1929 50 25 50Z" fill="black"/>
  </mask>
  <g mask="url(#mask0_1479_21424)">
    <path d="M25 50C38.8071 50 50 38.8071 50 25C50 11.1929 38.8071 0 25 0C11.1929 0 0 11.1929 0 25C0 38.8071 11.1929 50 25 50Z" fill="#1DA1F2"/>
    <path d="M39.155 15.263c1.24-1.172 2.199-2.653 2.89-4.245-1.037.615-2.158 1.022-3.343 1.213-1.06-.927-2.546-1.534-4.158-1.534-3.146 0-5.698 2.546-5.698 5.695 0 .445.05.879.146 1.293-4.732-.237-8.896-2.499-11.709-5.925-.49.843-.77 1.823-.77 2.867 0 1.979 1.007 3.726 2.548 4.748-1.048-.033-2.038-.321-2.91-.802v.079c0 2.765 1.963 5.071 4.577 5.598-1.088.298-2.229.115-3.171-.175.895 2.776 3.446 4.782 6.486 4.831-2.378 1.867-5.366 2.988-8.625 2.988-.56 0-1.113-.033-1.656-.097 3.083 1.971 6.748 3.124 10.703 3.124 12.821 0 19.802-10.613 19.802-19.802 0-.303-.008-.604-.021-.903 1.355-.975 2.528-2.193 3.46-3.585z" fill="white"/>
  </g>
  <defs>
    <linearGradient id="paint0_linear_1479_21424" x1="30.2778" y1="32.3611" x2="40.1389" y2="44.5833" gradientUnits="userSpaceOnUse">
      <stop stop-color="white"/>
      <stop offset="1" stop-color="white" stop-opacity="0"/>
    </linearGradient>
    <linearGradient id="paint1_linear_1479_21424" x1="33.612" y1="15" x2="33.5561" y2="29.6875" gradientUnits="userSpaceOnUse">
      <stop stop-color="white"/>
      <stop offset="1" stop-color="white" stop-opacity="0"/>
    </linearGradient>
  </defs>
</svg>
